<svg xmlns="http://www.w3.org/2000/svg" viewBox="0 0 443.79 443.79"><defs><style>.cls-1{fill:#fffcfa;}</style></defs><title>偶素甜點</title><g id="圖層_1" data-name="圖層 1"><path class="cls-1" d="M34.85,441.32a29.69,29.69,0,0,1-12.26-8c-4.47-4.58-8.58-9.64-11.11-15.53-4.43-10.33-1.83-18.19,3.5-27.2,14.36-24.28,40.29-39.14,65.39-50.18,97.53-42.92,207.57-44.85,302.38,8.67,22,12.4,56.42,35,51.29,64.76-5.22,30.31-38.56,29.66-62.61,29.62q-97-.17-194-.08-41.07,0-82.13-.13l-41.07-.12C46.6,443.1,40.51,443.16,34.85,441.32Z"/><circle class="cls-1" cx="221.84" cy="121.77" r="121.44"/></g></svg>